<svg xmlns="http://www.w3.org/2000/svg" viewBox="0 0 595.3 841.9"><path class="st0" d="M123.2 236.7c-8.3 0-33.7 0-33.7 20.8v16.6c0 19.9 17.2 21.4 43.4 21.4h11.7c23.9 0 37.8-2.9 37.8-17.7V264h-50.7v9.6h34.2v4.5c0 5.9-1.1 7.8-23.8 7.8h-11.5c-21.1 0-24.8-2.7-24.8-10.4v-17.3c0-9.4 1-11.9 24.5-11.9h15c18.9 0 20.2 2.1 20.2 5.5v5.2h16.4v-6.3c0-6.4-5.3-14.1-30.8-14.1h-27.9zM414.3 237.2H400v46.9c-5.7-4.7-57.6-46.9-57.6-46.9h-22.9v58h16.4v-46.6c5.7 4.6 57.7 46.6 57.7 46.6h22.8v-58h-2.1zM517.9 237.2H434v9.6h34.8v48.4h16.4v-48.4H520v-9.6h-2.1zM256.6 237.2h-18.3l-42.2 58h18s7.2-9.9 8.3-11.4h52.1c1.1 1.5 8.5 11.4 8.5 11.4h18l-43.3-58h-1.1zm-8.3 10.7c2.6 3.6 16 21.6 19.7 26.6h-39.1c3.6-5 16.8-23 19.4-26.6z"/><g><path class="st0" d="M174.1 333.2h14.5v3h-14.5v8h-6.2v-19.4h21.5v3.2h-15.3v5.2zM224.2 331.8v5.2c0 6.2-4 7.4-13.9 7.4-10.1 0-13.7-1-13.7-7.4v-5.2c0-6 3.4-7.1 13.7-7.1 9.4.1 13.9.9 13.9 7.1zm-21.4 0v5.2c0 3.8 1.3 4.2 7.5 4.2 5.7 0 7.6-.5 7.6-4.2v-5.2c.1-3.6-2.1-3.9-7.6-3.9-6.7 0-7.4.9-7.5 3.9zM259.5 331.8v5.2c0 6.2-4 7.4-13.9 7.4-10.1 0-13.7-1-13.7-7.4v-5.2c0-6 3.4-7.1 13.7-7.1 9.4.1 13.9.9 13.9 7.1zm-21.3 0v5.2c0 3.8 1.3 4.2 7.5 4.2 5.7 0 7.6-.5 7.6-4.2v-5.2c.1-3.6-2.1-3.9-7.6-3.9-6.8 0-7.4.9-7.5 3.9zM281.4 344.3h-6.2v-16.2h-9.5v-3.2H291v3.2h-9.5v16.2zM337.5 324.9h6.3l-8.8 19.4h-9l-6.5-14.8h-.2l-6.7 14.8h-8.9l-8.5-19.4h6.2l6.8 16.3h.2l7.5-16.3h7.2l7.3 16.3h.1l7-16.3zM356.6 332.9h15.2v3h-15.2v5.1h16.2v3.2h-22.4v-19.4h22.3v3.2h-16v4.9zM387.5 340.6l-2 3.7H379l10.8-19.4h9.2l11 19.4h-6.3l-2.1-3.7h-14.1zm7.1-12.9l-5.6 10h11.2l-5.6-10zM423.1 337.9v6.4h-6.2v-19.4h16.6c7.1.1 9.8 1.4 9.8 5.8 0 2.9-.3 5-5.8 5.5v.1c4.4.2 5.5 1.7 5.5 4.4v3.6h-6.2v-3.6c0-1.6-1.1-2.8-4.1-2.8h-9.6zm8.2-3.2c4.6 0 5.7-.5 5.7-3.4 0-2.7-.8-3.2-5.3-3.2H423v6.6h8.3z"/></g></svg>