<svg xmlns="http://www.w3.org/2000/svg" viewBox="0 0 148.92 37.26"><defs></defs><g fill="white"><g id="Lager_1" data-name="Lager 1"><path d="M11.64 0C8.76 0 0 0 0 7.21V13c0 6.89 5.94 7.4 15 7.4h4.06c8.28 0 13.08-1 13.08-6.14V9.44H14.62v3.33h11.85v1.57c0 2-.37 2.68-8.23 2.68h-4c-7.28 0-8.58-.94-8.58-3.6v-6c0-3.27.34-4.12 8.48-4.12h5.2c6.52 0 7 .72 7 1.91v1.8h5.69V4.88C32.06 2.65 30.21 0 21.41 0zM112.35.15h-5v16.24L87.49.15h-7.94v20.06h5.69V4.08l20 16.13h7.89V.15zM148.19.15h-29v3.33h12v16.73h5.69V3.48h12V.15zM57.78.15h-6.32l-14.6 20.06h6.23L46 16.27h18l2.92 3.94h6.2L58.15.15zm-2.87 3.72l6.81 9.2H48.19zM29.23 33.38h5v1.05h-5v2.77h-2.16v-6.7h7.44v1.1h-5.28zM46.57 32.9v1.8c0 2.14-1.39 2.56-4.8 2.56S37 36.9 37 34.7v-1.8c0-2.08 1.19-2.45 4.76-2.45 3.24 0 4.81.29 4.81 2.45zm-7.4 0v1.8c0 1.33.44 1.46 2.6 1.46 2 0 2.64-.16 2.64-1.46v-1.8c0-1.26-.72-1.35-2.64-1.35-2.32 0-2.55.28-2.59 1.35zM58.8 32.9v1.8c0 2.14-1.39 2.56-4.8 2.56s-4.76-.36-4.76-2.56v-1.8c0-2.08 1.19-2.45 4.76-2.45 3.24 0 4.8.29 4.8 2.45zm-7.4 0v1.8c0 1.33.44 1.46 2.6 1.46 2 0 2.64-.16 2.64-1.46v-1.8c0-1.26-.72-1.35-2.64-1.35-2.32 0-2.55.28-2.59 1.35zM66.38 37.2h-2.16v-5.6h-3.3v-1.1h8.76v1.1h-3.3zM85.77 30.5h2.18l-3 6.7H81.8l-2.25-5.11h-.06l-2.33 5.11h-3.09l-2.93-6.7h2.16l2.34 5.65h.06l2.58-5.65h2.49l2.52 5.65zM92.39 33.27h5.27v1.05h-5.27v1.78H98v1.1h-7.77v-6.7h7.71v1.1h-5.55zM103.07 35.93l-.71 1.27h-2.24l3.74-6.7H107l3.81 6.7h-2.19l-.74-1.27zm2.45-4.45L103.57 35h3.89zM115.39 35v2.2h-2.16v-6.7H119c2.46 0 3.41.49 3.41 2 0 1-.09 1.72-2 1.89 1.53.08 1.91.57 1.91 1.52v1.29h-2.16V36c0-.56-.39-1-1.43-1zm2.85-1.1c1.59 0 2-.19 2-1.17s-.29-1.12-1.83-1.12h-3v2.29z"/></g></g></svg>