<svg xmlns="http://www.w3.org/2000/svg" viewBox="0 0 116.78 86.76"><defs></defs><g fill="white"><g><path d="M47 .54A13.8 13.8 0 0 0 44.4 4a7.68 7.68 0 0 1-3 3.13A5.64 5.64 0 0 1 43 6.8a6.23 6.23 0 0 1 1.71.2 10.33 10.33 0 0 0 3.49.27c.09 0 0 0 0 0a1.61 1.61 0 0 1-.27.19 7.26 7.26 0 0 1-3.3.9 8.53 8.53 0 0 1-4-.82A12 12 0 0 1 43 3.27a8.92 8.92 0 0 1 4-2.73M68 0a8.81 8.81 0 0 1 4 2.71A11.76 11.76 0 0 1 74.36 7a8.85 8.85 0 0 1-4 .8 6.7 6.7 0 0 1-3.63-1.13 10.15 10.15 0 0 0 3.47-.27 5.55 5.55 0 0 1 3.32.21c0-.07-.13-.1-.19-.13a7.62 7.62 0 0 1-.65-.48 8.09 8.09 0 0 1-2.06-2.5A13.26 13.26 0 0 0 68 0z"/><path  d="M37.5 10c0 .06.08 0 .06 0a3.8 3.8 0 0 1 1.83-.59 4.35 4.35 0 0 1 1.16.19c.07 0 0 .11-.08.15-.26.4-.55.89-.82 1.3a24.58 24.58 0 0 1-2.86-.5 13 13 0 0 1 1.89-5.46 10.14 10.14 0 0 1 3.72-3.7 13.07 13.07 0 0 0-1.26 2.1c-.37.77-.64 1.6-.93 2.42-1.33 3.67-.68 2.48-2.67 4M77.49 10c-.27-.29-.57-.54-.84-.82A9 9 0 0 1 74.8 6c-.3-.82-.57-1.66-.93-2.44a14.48 14.48 0 0 0-1.27-2.17 10.37 10.37 0 0 1 3.72 3.66 13 13 0 0 1 1.87 5.46c-.93.19-1.85.4-2.86.52-.28-.51-.61-1-.92-1.47a3.67 3.67 0 0 1 3.07.44M52.65 2.31a10.68 10.68 0 0 0-2.12.84c-4.34 2.23-.9 2.86-6.45 2.38-.08 0 .06-.11.1-.15a10.74 10.74 0 0 1 2.63-2.06 8.43 8.43 0 0 1 5.84-1M70.94 5.53a6.85 6.85 0 0 1-4.62-1.26 12.49 12.49 0 0 0-4-1.95 8.21 8.21 0 0 1 5.53.84 10.05 10.05 0 0 1 3.05 2.37"/><path d="M38.91 12.31a2.48 2.48 0 0 1-.21.48c-.22.45-.5.94-.71 1.43a10.55 10.55 0 0 1-4.52.88 13.22 13.22 0 0 1 1-6.16 12.25 12.25 0 0 1 1.37-2.34 9.7 9.7 0 0 1 1.53-1.68l.13-.1s.06-.1.1 0a11.85 11.85 0 0 0-.92 2.33c-.24.87-.35 2.35-.52 3.25a6.7 6.7 0 0 1-.72 2 8.41 8.41 0 0 1-1.26 2 6.69 6.69 0 0 1 2.06-1.4 20.17 20.17 0 0 1 2.67-.72M80.81 14.35c.08 0 0 0 0-.06a10.25 10.25 0 0 1-1.24-2 11.31 11.31 0 0 1-.69-2.54 15.64 15.64 0 0 0-1.45-5c.08 0 .16.1.25.17a11 11 0 0 1 2.82 4 13.25 13.25 0 0 1 1.07 6.14 10.62 10.62 0 0 1-4.57-.85c-.27-.66-.62-1.25-.92-1.89a8.53 8.53 0 0 1 4.73 2M57.09 6.93a.55.55 0 0 0 1 0 .52.52 0 0 0-.57-.71.51.51 0 0 0-.42.71m3.87.9c-.08-.19-.39-.08-.57-.06a.56.56 0 0 1 .36-1c.16.14.24.53.52.46s.1-.33.06-.51a.62.62 0 0 1 .61-.11c.13 0 .36.33.32.48s-.37.14-.36.36.45.18.65.15a.55.55 0 0 1 .13.59c-.05.16-.34.37-.5.34s-.17-.42-.44-.44c-.19.28.14.64.38.69a.89.89 0 0 0 .48-.06c.16-.06.27-.2.42-.21s.1.32.15.46a.38.38 0 0 0 .69.11c.12-.24 0-.62.1-.86a1 1 0 0 1 .9-.38.83.83 0 0 1 .76.38c-.07.1-.22 0-.34.08-.29.12-.26.79-.42 1s-.7.37-.84.76c0 .14.13.16.13.31a.27.27 0 0 1-.25.27c-.14 0-.38-.3-.53-.44-1.3-1.04-3.38-1.5-5.77-1.5a10 10 0 0 0-5.15 1.11 4.35 4.35 0 0 0-.61.44c-.19.17-.41.47-.55.48a.26.26 0 0 1-.27-.25c0-.15.13-.21.13-.31s-.22-.3-.32-.38a3.26 3.26 0 0 1-.42-.29c-.31-.33-.19-1-.52-1.16-.1 0-.33 0-.34-.08a.84.84 0 0 1 .72-.38 1 1 0 0 1 1 .42c.1.24 0 .63.1.84s.6.08.69-.17 0-.32.13-.42.46.36.9.27a.54.54 0 0 0 .4-.69c-.29 0-.24.4-.46.44s-.44-.2-.5-.36a.6.6 0 0 1 .11-.57c.16 0 .66.16.67-.15s-.27-.18-.36-.34a.57.57 0 0 1 .92-.4c0 .15-.14.47.06.53s.41-.35.53-.46a.58.58 0 0 1 .4.93c-.17 0-.5-.13-.61.06a.6.6 0 0 0 .67.25.52.52 0 0 0 .29-.27c0-.07.15-.31.23-.32s.49.41.65.46a1 1 0 0 0 .78-.13.45.45 0 0 0 .23-.38c0-.18-.11-.22-.19-.23s-.45.24-.57.23-.46-.44-.42-.74.29-.59.42-.59.3.25.52.25a.41.41 0 0 0 .31-.67c-.08-.12-.17-.14-.17-.25a.84.84 0 0 1 .63-.57c.25 0 .68.33.67.57S58 5.66 58 6s.43.43.69.27c.1-.06.14-.16.23-.15s.43.43.44.65-.24.68-.44.69-.29-.26-.55-.23a.24.24 0 0 0-.21.23c0 .36.53.61.94.53a.83.83 0 0 0 .36-.23c.11-.09.23-.26.34-.25s.26.43.38.52a.6.6 0 0 0 .82-.21"/><path d="M58.49 9.33a1.54 1.54 0 0 1-.49.27c-.08 0-.34.25-.46.25s-.36-.19-.46-.25l-.46-.23c.27-.21.61-.34.9-.53.33.14.59.35.92.5M55.83 9a.38.38 0 0 1 .52.4.41.41 0 0 1-.82 0 .37.37 0 0 1 .31-.4M59.13 9a.4.4 0 0 1 .51.38.41.41 0 0 1-.82 0 .36.36 0 0 1 .31-.38M55.22 9.48c-.2.19-.43.35-.63.53-.26-.09-.51-.18-.78-.25.19-.2.43-.36.63-.55.26.09.51.19.78.27M61.37 9.75c-.23.11-.53.16-.76.27a5.65 5.65 0 0 1-.61-.54c.25-.09.51-.17.74-.27.23.17.43.36.65.53M53.11 9.71a.4.4 0 0 1 .19 0 .38.38 0 0 1-.15.71.36.36 0 0 1 0-.72M62 9.71a.39.39 0 0 1 .23 0 .37.37 0 1 1-.48.06.38.38 0 0 1 .25-.1"/><path d="M65 12.84a25.09 25.09 0 0 1-4-.55c-1-.21-2.14-.51-3.13-.8a1.65 1.65 0 0 0-.46-.11 3.07 3.07 0 0 0-.48.15c-1 .3-2.05.55-3.13.78a23.23 23.23 0 0 1-3.91.55 17.54 17.54 0 0 1-7.59-1.3A33.56 33.56 0 0 0 37.65 24a28.24 28.24 0 0 0 0 8 27.29 27.29 0 0 0 9 16.75 42.83 42.83 0 0 0 7.73 5.15 16.42 16.42 0 0 0 2.94 1.35c.35.11.62-.08 1-.25s.53-.23.74-.34a60.84 60.84 0 0 0 6.6-4.18 29.79 29.79 0 0 0 9.73-11.83A25.75 25.75 0 0 0 77.64 28a28.29 28.29 0 0 0-2.16-10.78 33.11 33.11 0 0 0-2.67-5.4c-.07-.11-.11-.25-.23-.32A20.56 20.56 0 0 1 65 12.84M41.89 9.77a15.08 15.08 0 0 0 7.73 1.7 20.77 20.77 0 0 0 4.14-.57c1.06-.24 2.24-.55 3.24-.9a1.65 1.65 0 0 1 .5-.13 4.67 4.67 0 0 1 .5.13c1 .31 2.14.62 3.26.86a21.23 21.23 0 0 0 4.12.57 16.57 16.57 0 0 0 4.2-.52 22.43 22.43 0 0 0 3.57-1.13 4 4 0 0 1 .5.67 32.36 32.36 0 0 1 2.8 5.34A34.79 34.79 0 0 1 78.6 23a26.36 26.36 0 0 1 .4 4.17 27.86 27.86 0 0 1-2.23 11.7A31.12 31.12 0 0 1 69 49.63a38.88 38.88 0 0 1-5.36 3.93 44.09 44.09 0 0 1-4.41 2.58 4.26 4.26 0 0 1-1.72.59 5 5 0 0 1-1.77-.55 43.63 43.63 0 0 1-4.52-2.44 36.84 36.84 0 0 1-5.44-3.85A28.57 28.57 0 0 1 41.35 45a28.08 28.08 0 0 1-5.19-13.4 29.92 29.92 0 0 1 .25-8.6 32.29 32.29 0 0 1 2.16-7.14 31.81 31.81 0 0 1 3.32-6.07"/><path d="M52.49 10.4c-.08.21-.19.39-.29.59-.23 0-.41.06-.65.06.08-.21.19-.41.29-.61h.65M62.68 10.42a4.26 4.26 0 0 1 .65 0 5.43 5.43 0 0 1 .29.61C63.38 11 63.2 11 63 11l-.29-.57M62.21 15.17c-.12.28 0 .46-.06.78a1.94 1.94 0 0 1-.23.4c-.07.12-.19.35-.15.46s.33.17.46.23c-.08.28-.39.43-.38.73s.54.61.9.67c0 .4 0 .75.38.84a3.52 3.52 0 0 0 .63 0 6.39 6.39 0 0 1 1.62.32 3.27 3.27 0 0 1 .9.4c.21.13.62.41.51.78s-1.07.06-.93.76c2-.15 2.93.93 3.78 2a2.8 2.8 0 0 1-2.67.29c-.37-.21-.58-.62-1.09-.69a3.51 3.51 0 0 0-.88.08 6.82 6.82 0 0 0-.82.13 8.41 8.41 0 0 1-1.53.38 7.33 7.33 0 0 1-.82 0 2.71 2.71 0 0 1-.74-.1 2.61 2.61 0 0 1-.57-.44 1.73 1.73 0 0 0-.84-.44c-.36 0-.77.13-1.16.11s-.91-.34-1.37-.19a1.37 1.37 0 0 0-.52.4c-.49.56-.86 1.51-1.41 2a1.27 1.27 0 0 1-.69.36c.19.4.59.64.76 1.09a4.92 4.92 0 0 1 .15 1.7c.55 0 .9.35 1.53.32.33 0 .65-.13 1-.17a5.7 5.7 0 0 1 1.07 0c.71.05 1.44 0 2.14.15a12.94 12.94 0 0 0 3 .42c.35 0 .68-.09 1-.11a3.62 3.62 0 0 1 1.32.23 5.51 5.51 0 0 0 1.28.25 6 6 0 0 0 1.45 0 1.83 1.83 0 0 0 1-.52.61.61 0 0 0 .17-.5c-.06-.54-1-.79-1.47-.92A14.9 14.9 0 0 0 67 27a13.71 13.71 0 0 0-4.31.32c-.59.12-1.22.4-1.87.52a3.73 3.73 0 0 1-2-.25 5.14 5.14 0 0 1-1.53-.86c-.42-.36-1.14-1.26-.69-2a1.55 1.55 0 0 1 .94-.67c.22-.07.48 0 .74-.1a3.28 3.28 0 0 1 .86-.15c.18 0 .32.1.5.1a1.43 1.43 0 0 0 .42-.13 1.85 1.85 0 0 1 2 .48c.09.09.45.48.27.74s-.51 0-.76.08 0 .33 0 .42c-.41.08-.65-.16-1.07-.13-.13.12-.2.35-.42.4a.67.67 0 0 1-.52-.13c-.29 0-.56.07-.61.36-.25 0-.94-.33-1 .08 0 .24.67.48.92.55a5.23 5.23 0 0 0 1.3.21 5.39 5.39 0 0 0 .92-.13c.85-.15 1.8-.3 2.69-.42 1.2-.16 2.36-.48 3.61-.53a5.54 5.54 0 0 1 4.6 1.6 2.21 2.21 0 0 1 .59 1.47 2.26 2.26 0 0 1-.57 1.55 3.58 3.58 0 0 1-3.26.86c-.24 0-.59-.11-.9-.15s-1-.12-1.09.21.32.92.52 1.2.5.68.72 1a9.12 9.12 0 0 1 .63 1.09 4.21 4.21 0 0 0 .65 1 2.23 2.23 0 0 0 1.24.53 2.29 2.29 0 0 1 1.26.5 1 1 0 0 1 .23.48c0 .14-.05.3 0 .42s.18.27.27.46a4.54 4.54 0 0 1 .31 1.85c0 .43-.3.61-.69.76a.93.93 0 0 1-.15.42c-.05.05-.17 0-.27 0 0 .2 0 .44-.08.55s-.27.06-.36.1c-.25.11-.3.45-.5.59a2.27 2.27 0 0 1-1.37.1c-.19-.08-.32-.29-.46-.44s-.15-.13-.23-.21-.14-.19-.21-.23-.34-.05-.44-.17a1.8 1.8 0 0 1 .1-1.37c.23-.31.72-.3 1.24-.21 0-.34.35-.47.65-.32.05-.36-.27-.35-.34-.59s0-.34 0-.55c-.15-.44-1-.26-1.56-.23a3.77 3.77 0 0 1-2.58-.65 20.68 20.68 0 0 1-1.72-1.56 1.69 1.69 0 0 0-1.32-.53 1.42 1.42 0 0 0-.9.42 1.37 1.37 0 0 0-.48.84c0 .42.51.73.57 1.26a2.55 2.55 0 0 1-.1.9 2 2 0 0 0-1.56.72 12.59 12.59 0 0 1-1 .8 12.08 12.08 0 0 0-1.56 1.16c-.25.23-.51.57-1 .55s-.56-.28-.86-.32c-.61-.09-1.21 0-1.56-.32a1.17 1.17 0 0 1 0-1.41 3.3 3.3 0 0 1 1.09-.55A3.43 3.43 0 0 1 56.1 39a2.46 2.46 0 0 0 1-.08.94.94 0 0 0 .55-1c0-.2-.23-.43-.32-.73a3.31 3.31 0 0 0-.38-1.07 1.43 1.43 0 0 0-.44-.32 4.4 4.4 0 0 1-.34.34 4.44 4.44 0 0 1-1.53.59c-.59.15-1.23.18-1.85.27a8.41 8.41 0 0 0-1.77.34 3.38 3.38 0 0 0-1.24.86c-.66.7-1 1.72-1.72 2.5a9 9 0 0 1-1.07 1l-.59.46c-.26.21-.46.48-.92.42a1.11 1.11 0 0 1-.53-.25c-.08-.09 0-.23-.15-.29s-.15.17-.31.21-.37-.06-.59 0a1.14 1.14 0 0 1-.13-.25c-.12 0-.18-.13-.31-.15s0-.25-.06-.32-.39-.1-.44-.36.25-.56.42-.73.19-.18.29-.29.18-.24.29-.27.4.09.55.11a1.94 1.94 0 0 0 1.55-.4 3.87 3.87 0 0 0 .8-2.38 1.31 1.31 0 0 0-.86.42c-.16.13-.29.29-.46.31-.14.18-.33.29-.46.5s-.16.35-.27.52a1.08 1.08 0 0 1-1 .55.5.5 0 0 1-.36-.23 1 1 0 0 1 .06-.69c.05-.18.18-.49 0-.67s-.7 0-.9-.19a.63.63 0 0 1 .21-.63c.06 0 .16 0 .17-.1 0-.36-.41-.13-.5-.46a1 1 0 0 1 .08-.42c.12-.42.16-1.36.74-.92.22-.21.29-.58.53-.76a1 1 0 0 0 .5 0 .68.68 0 0 0 .23-.74 2 2 0 0 0-.19-.38 1.11 1.11 0 0 1 .69-.5 3.71 3.71 0 0 0 .92-.27c.12-.08.27-.3.21-.46s-.48-.14-.82-.11a2.23 2.23 0 0 1-.86-.06 2.5 2.5 0 0 1-.29-.15 4.22 4.22 0 0 1-.57-.31c-.07 0-.21-.13-.19-.23s.32-.12.52-.15.54-.11.65-.34a.46.46 0 0 0 .06-.25c0-.19-.49-.16-.71-.08s-.5.44-.88.53c-.11-.7.49-1 .82-1.41a1 1 0 0 1-.73-.59 1 1 0 0 1-.21-.67c.23 0 .36.2.55.29a1.48 1.48 0 0 0 1 0 1.51 1.51 0 0 0 .59-.67 1.27 1.27 0 0 0 .13-.29 3.52 3.52 0 0 0-.19-1 7.15 7.15 0 0 1 0-2.21 4.87 4.87 0 0 1 .19-1c.3-.79 1.13-1.09 1.47-1.77a5.07 5.07 0 0 0 .27-1.19 1.6 1.6 0 0 0 .1-.65 3 3 0 0 0-.25-.74c-.08-.19-.31-.59-.21-.71s.32 0 .31 0 .19.11.27.13a1.68 1.68 0 0 0 .74 0 5.29 5.29 0 0 0 .46-.27c.32-.1.71 0 .72-.36s-.18-.41-.52-.4c.05-.18.11-.49.31-.57s.25 0 .32 0c.25-.08.35-.38.59-.38s.19.23.46.32.57 0 .67.23a.7.7 0 0 1-.06.5c0 .12-.18.27-.17.4s.5.33.65.51a1.74 1.74 0 0 1 .21.48c.3-.15.63 0 1-.06a1.83 1.83 0 0 1-.13 1.22 6.62 6.62 0 0 0-.34 1.14l.57.19a.67.67 0 0 1 .52.52c.06.37-.16.79 0 1.14s.77.29 1 .63c.07.13 0 .24.08.48.16 0 .25-.22.44-.25.08-.45.52-.58.76-.93.13-.18.18-.42.3-.59s.58-.43.48-1a2.5 2.5 0 0 0-.46-.8c-.05-.08-.1-.18-.15-.25-.2-.24-.69-.4-.82-.71a3.06 3.06 0 0 1-.1-.44c-.07-.33-.1-.8.23-.86s.28.1.48.1a1.45 1.45 0 0 0 .59-.25c.28-.15.66-.41 1-.15a.71.71 0 0 1 .15.23c0 .09.07.19.17.21.26.06.39-.21.63-.21s.43.26.55 0-.13-.47-.25-.59c-.34-.34-.62-.41-1-.74-.15-.15-.34-.33-.32-.53s.35-.34.71-.38a2.65 2.65 0 0 1 1.41.11c.44.28.56.78.86 1.09 0-.23-.12-.53-.11-.84s.11-.51.29-.55.36.08.51.06c.48-.05.61-1 1.09-1a.65.65 0 0 1 .51.25M26.53 21.12a16.08 16.08 0 0 0 2.21 5.27 9.67 9.67 0 0 1 1.58 5.86 9.11 9.11 0 0 1 .79-2.25 9.51 9.51 0 0 1 1.26-1.79 17.86 17.86 0 0 0 2.58-3.55c0 .7-.12 1.42-.15 2.21a4.78 4.78 0 0 1 0 .78 3.15 3.15 0 0 1-.19.46 12.53 12.53 0 0 1-4.33 5.3 14.53 14.53 0 0 1-4-8.45 11.07 11.07 0 0 1 0-2 9.9 9.9 0 0 1 .31-1.81M88.44 21.14a11.81 11.81 0 0 1-.52 7.12 15.15 15.15 0 0 1-3.19 5.09A12.24 12.24 0 0 1 80.41 28a2.43 2.43 0 0 1-.19-.44 6 6 0 0 1 0-.78c0-.74-.1-1.45-.17-2.18a18.84 18.84 0 0 0 2.59 3.51 8.12 8.12 0 0 1 2 4.1c-.16-3.87 1.74-5.67 2.9-8.24a11.73 11.73 0 0 0 .92-2.84"/><path  d="M89.24 28.58a11.89 11.89 0 0 1-2.12 6.74 15.66 15.66 0 0 1-3.72 3.95 4.8 4.8 0 0 0-.61.48 11.89 11.89 0 0 1-3-6 3.07 3.07 0 0 1-.1-.5 2.78 2.78 0 0 1 .08-.4c.15-.92.27-1.88.34-2.9a16.65 16.65 0 0 0 1.7 4 8.32 8.32 0 0 1 1.09 4.6 10 10 0 0 1 2.84-5.29c.66-.71 1.32-1.4 1.91-2.16a13.12 13.12 0 0 0 1.56-2.58M25.8 28.72c.24.46.47.9.72 1.32a22 22 0 0 0 2.75 3.32 9.9 9.9 0 0 1 2.79 5.28c-.2-3.92 2.13-5.47 2.77-8.62.09.89.16 1.76.29 2.58a6.56 6.56 0 0 1 .13.84 2.79 2.79 0 0 1-.1.48 12.24 12.24 0 0 1-2.94 5.86 16.55 16.55 0 0 1-4-4 13.44 13.44 0 0 1-2.37-5.65z"/><path  d="M35.11 44.57a10.7 10.7 0 0 1-.32-2.1c0-2.4 1-4 1-6.28a8.33 8.33 0 0 1 .29.92c.22.72.49 1.49.78 2.21a2.3 2.3 0 0 1 .17.42 4.71 4.71 0 0 1-.06.88 12.28 12.28 0 0 1-1.51 5A16.42 16.42 0 0 1 30 41.88a12.58 12.58 0 0 1-3.34-5.93c0-.08.06.06.1.1a16.12 16.12 0 0 0 2 2c.77.66 1.63 1.22 2.46 1.81a10.26 10.26 0 0 1 3.91 4.64zM64.53 46a1.15 1.15 0 0 0 .23 1 .43.43 0 0 0 .67-.31c.08-.54-.17-1-.61-.9a.37.37 0 0 0-.29.17m.53 2.37a4.58 4.58 0 0 0 .4-1.2c-.16 0-.19.13-.32.17-.83.23-1.32-.88-.88-1.45a.93.93 0 0 1 1.37 0 2.32 2.32 0 0 1-.15 2.29c-.13.2-.21.34-.42.21M51.2 46.23a4.35 4.35 0 0 1-.13.63c-.18 0-.11-.14-.13-.21-.1-.35-.45-.38-.88-.44a2.19 2.19 0 0 0-.21.76c.14 0 .32.15.46.11s.12-.2.21-.32.07 0 .13 0c0 .32-.12.62-.17.94h-.13c-.02 0 0-.24 0-.31s-.34-.1-.5-.15a1.57 1.57 0 0 0-.11.4 1 1 0 0 0-.06.44c0 .15.54.26.74.25s.35-.24.46-.42h.1c.02 0 0 .1 0 .15s-.07.36-.11.52a17.78 17.78 0 0 1-2.06-.44v-.13c0-.06.2.09.31.06s.14-.33.17-.46c.12-.51.27-1.09.32-1.55-.06-.08-.2-.08-.31-.11a.71.71 0 0 1 0-.13c.62.15 1.25.27 1.89.4M63.66 46v.25c0 .09-.16.21-.25.34a2.68 2.68 0 0 0-.31 2.19 1.71 1.71 0 0 1-.52.17 3.17 3.17 0 0 1 .67-2.54c-.46.11-1.15 0-1.14.57H62v-.73c.59-.08 1.17-.17 1.74-.27M60.43 46.67a1.14 1.14 0 0 0 .13 1 .49.49 0 0 0 .48.08c.18-.07.27-.42.25-.71s-.21-.62-.57-.55a.36.36 0 0 0-.29.17m.29 2.38c0-.11.11-.19.17-.29a7.17 7.17 0 0 0 .36-.88c-.17 0-.31.2-.65.13a.93.93 0 0 1-.6-1 .89.89 0 0 1 1.49-.46 2.1 2.1 0 0 1-.1 2 2.62 2.62 0 0 1-.29.38c-.11.12-.21.27-.38.13M53.16 46.61a2.23 2.23 0 0 1 0 .29c0 .09 0 .23-.06.25S53 47 53 47c-.1-.25-.36-.56-.74-.36a.32.32 0 0 0-.19.29c0 .51 1.19.6 1.14 1.35s-1.45.73-1.79.25a5.79 5.79 0 0 1 .1-.57c.19 0 .14.09.15.15s0 .36.21.48.88.15.88-.27-1-.61-1.09-1.14a.64.64 0 0 1 .31-.69 1.29 1.29 0 0 1 1.22.13M59.1 46.46c.1.08.05.27.06.38 0 .68.06 1.49.13 2.14a1.28 1.28 0 0 0 .44 0v.17a12.44 12.44 0 0 1-1.39 0v-.1c.08-.09.35 0 .44-.08a2.76 2.76 0 0 0 0-.76v-1.28c-.18 0-.41.18-.61.15s.14-.25.32-.36a1.14 1.14 0 0 1 .65-.29M55.87 46.76a4.86 4.86 0 0 1 0 .69c-.2 0-.13-.21-.17-.31s-.29-.26-.63-.25c-.08.64-.11 1.34-.15 2 .06.08.25 0 .34.08v.1c-.06.09-.19 0-.27 0a5.88 5.88 0 0 1-.9-.08v-.1c0-.1.24 0 .32 0a1 1 0 0 0 .1-.48c0-.49.07-1 .11-1.55a.52.52 0 0 0-.78.42h-.1c-.1 0 0-.19 0-.29a2.27 2.27 0 0 1 .06-.32v-.06c.68.05 1.36.11 2.06.15M70.11 54.09a10.9 10.9 0 0 1 2.5-1.76 12.66 12.66 0 0 1 3.19-1 35.27 35.27 0 0 0 3.45-.78 16.61 16.61 0 0 0 2.94-1.3A13.47 13.47 0 0 1 77 53.44 15.15 15.15 0 0 1 69.25 55a14.15 14.15 0 0 1 .32-4 2.1 2.1 0 0 1 .1-.4c.07-.13.24-.23.38-.36a31.52 31.52 0 0 0 2.38-2.42s0-.08.08-.11.06-.09.08 0a25.78 25.78 0 0 1-.84 3.57 9 9 0 0 1-1.62 2.79M56.58 48.69c.24 0 .38.07.38.27 0 .4-.68.41-.63 0 0-.12.1-.2.25-.23M57.32 57.89c0 .08-.09.13-.13.17-.36.36-.75.76-1.16 1.11a17.72 17.72 0 0 1-4.88 3 15.32 15.32 0 0 1-4.2 1 12.35 12.35 0 0 1-4.67-.4 18.37 18.37 0 0 0 3.47-1.14c2.05-1 3.77-2.41 5.84-3.36a11.61 11.61 0 0 1 3.63-1h.08a7.55 7.55 0 0 0 2 .63M72.66 62.74a11.37 11.37 0 0 1-4.66.42 15.21 15.21 0 0 1-4.2-1 17.72 17.72 0 0 1-4.88-3 9.85 9.85 0 0 1-1.3-1.26 7.16 7.16 0 0 0 1.91-.61 3.1 3.1 0 0 1 1.09.1 14.58 14.58 0 0 1 5.61 2.5 17.48 17.48 0 0 0 6.43 2.84M81.76 8.7a11.62 11.62 0 0 1 2.48 5.11 14 14 0 0 1-.19 6.74 11.71 11.71 0 0 1-5.53-2.48c-.24-.72-.49-1.43-.78-2.1a1.46 1.46 0 0 1 .38.17C79 16.59 80 17 81 17.46a7.68 7.68 0 0 1 2.54 2.18 9.61 9.61 0 0 1-.93-2.25 11.2 11.2 0 0 1-.29-2.88c0-1.06.08-2.1 0-3.09a12.73 12.73 0 0 0-.52-2.71"/><path  d="M79.09 19.9a19.27 19.27 0 0 0 3.09 2.63 7.48 7.48 0 0 1 2.56 3.15 3.48 3.48 0 0 0-.13-.61 8.65 8.65 0 0 1-.19-2.07 11.51 11.51 0 0 1 .48-2.63 15.7 15.7 0 0 0 .84-5.38 11.06 11.06 0 0 1 1.18 6.14 13.79 13.79 0 0 1-1.76 5.63 11.42 11.42 0 0 1-4.48-3.19 11.81 11.81 0 0 1-.82-1.09 2.29 2.29 0 0 1-.25-.38 5.23 5.23 0 0 1-.11-.55c-.12-.54-.24-1.08-.4-1.6M29.33 43a16 16 0 0 0 2.5 1.74c.91.51 1.91.92 2.88 1.35a12 12 0 0 1 2.69 1.55 11 11 0 0 1 2 2.18 8.36 8.36 0 0 1-1-3.17c-.13-1.26 0-2.65 0-4a36 36 0 0 0 2 3.19 13.43 13.43 0 0 1-.4 5A15.5 15.5 0 0 1 33.61 48a14.84 14.84 0 0 1-2.42-2.19A11.94 11.94 0 0 1 29.33 43"/><path  d="M32.82 49.23a15.83 15.83 0 0 0 3 1.28c2.16.68 4.78.85 6.64 1.83a12.78 12.78 0 0 1 2.46 1.76 10.58 10.58 0 0 1-2.35-5.69c0-.07.08 0 .08 0 .8.81 1.57 1.63 2.46 2.42.13.12.33.21.38.32a2.24 2.24 0 0 1 .08.44 14.85 14.85 0 0 1 .19 3.41 15.3 15.3 0 0 1-10.61-3.34 12 12 0 0 1-2.33-2.42"/><path  d="M48.45 53.4c1.14.73 2.29 1.45 3.47 2.14a15.31 15.31 0 0 1 .5 1.93c0 .06-.05 0-.11 0a13.46 13.46 0 0 1-5 .94 13.69 13.69 0 0 1-7-1.85 7.9 7.9 0 0 1-1.68-1.22 13.84 13.84 0 0 0 3.17.5c1.14 0 2.32-.07 3.47-.15a12.26 12.26 0 0 1 3.4.15 9.88 9.88 0 0 1 2.67 1 5.17 5.17 0 0 0-.42-.34 9 9 0 0 1-1.22-1.16 9.34 9.34 0 0 1-1.3-1.95M37.23 16c-.21.53-.4 1-.59 1.58a2.8 2.8 0 0 1-.19.52 2.4 2.4 0 0 1-.55.46 12.06 12.06 0 0 1-5 2 1.62 1.62 0 0 1-.11-.34 14.39 14.39 0 0 1-.42-2.92 13.58 13.58 0 0 1 .34-3.47 11.38 11.38 0 0 1 2.51-5.13 14 14 0 0 0-.55 3.93 26.5 26.5 0 0 1-.06 3.91 9.49 9.49 0 0 1-1.07 3 8.25 8.25 0 0 1 2.46-2.1c1-.55 2.19-.9 3.21-1.49"/><path  d="M29.26 14.92a14.66 14.66 0 0 0 .84 5.36 10.38 10.38 0 0 1 .47 2.72 9.28 9.28 0 0 1-.36 2.75 7.77 7.77 0 0 1 2.59-3.17 23.86 23.86 0 0 0 2.4-1.93c.24-.24.44-.48.69-.71-.15.55-.27 1-.4 1.62a4.3 4.3 0 0 1-.11.55 2.51 2.51 0 0 1-.25.4 11.72 11.72 0 0 1-5.27 4.24 1.45 1.45 0 0 1-.17-.31 13.15 13.15 0 0 1-1.6-5.28 11.29 11.29 0 0 1 1.16-6.2M79.11 35.85c0 2.34 1.09 4 1.09 6.35a8.59 8.59 0 0 1-.34 2.29 12.19 12.19 0 0 1 1.64-2.59c1.64-1.88 4.16-3 5.86-4.83.17-.19.33-.38.5-.57a5.94 5.94 0 0 1 .48-.55A12.42 12.42 0 0 1 85 41.88a15.76 15.76 0 0 1-3.95 3c-.5.27-1 .52-1.55.76a12 12 0 0 1-1.55-5.46 4.86 4.86 0 0 1 0-1 2.37 2.37 0 0 1 .17-.4 30.5 30.5 0 0 0 1-3"/><path  d="M75.56 49.74a10.41 10.41 0 0 1 2.06-2.18A12.79 12.79 0 0 1 80.33 46c.49-.22 1-.42 1.47-.65s.94-.46 1.39-.71a13.65 13.65 0 0 0 2.19-1.51 1.59 1.59 0 0 1 .23-.17s0-.07 0 0a13.14 13.14 0 0 1-4.25 5 15.17 15.17 0 0 1-6.49 2.75 13.63 13.63 0 0 1-.4-5 4 4 0 0 1 .1-.69 1.83 1.83 0 0 1 .27-.38A29.44 29.44 0 0 0 76.57 42v2.12c0 .71.06 1.46 0 2.16a8.3 8.3 0 0 1-1 3.47zM63.64 56.8a11 11 0 0 1 2.67-1c2.08-.44 4.6.08 6.83 0a13.12 13.12 0 0 0 3.13-.5c.07 0 0 .07 0 .08a6.36 6.36 0 0 1-.73.57 13.38 13.38 0 0 1-7.88 2.42 14.63 14.63 0 0 1-5.09-1 14.87 14.87 0 0 1 .61-2.23c1.15-.71 2.31-1.52 3.43-2.29l.11-.08s.08-.08.1 0a9.15 9.15 0 0 1-3.17 3.93M0 68.32v17.77h16.11v-5.82h-4.32v2.35H5.15v-14.3H0zM49.3 68.34l-11.48.07v17.7h4.49v-6.19h4.87l4 6.18h4.9l-4.72-6.66s3.38-.95 3.92-3.92a11.31 11.31 0 0 0 .06-1.69c-.12-.84-.33-5.51-6-5.51m-7 3.28h5.84c3.25 0 3.1 2.45 3.1 2.45 0 2-2.44 2.32-2.44 2.32h-6.5zM98 77c0-5.61-4.31-9.41-10-9.41S78 71.36 78 77a10 10 0 0 0 20 0m-10-5.68A5.65 5.65 0 1 1 82.46 77 5.42 5.42 0 0 1 88 71.32M109.77 79.1c1.06.15 2.3.57 2.08 1.78 0 0-.11 1.68-3.61 1.68a14.09 14.09 0 0 1-6.5-1.36L99.18 84a19.59 19.59 0 0 0 9.67 2.3s7.16 0 7.81-5.14c0 0 1.34-4.83-5.11-5.86l-2-.2-1.6-.1c-1-.13-3-.27-3-1.76 0-.48-.16-1.81 3.54-1.68a11.45 11.45 0 0 1 5.7 1.36l2.58-2.79s-2.91-2.33-8.89-2.33c0 0-7.44-.36-8 5.33 0 .46.05 3.66 4.3 5 .42.13 1.74.43 2.23.53.68.13 2.38.31 3.44.46M70 68.34l-11.48.07v17.7H63v-6.19h4.9l4 6.18h4.9l-4.72-6.66s3.38-.95 3.92-3.92a11.31 11.31 0 0 0 .06-1.69c-.12-.84-.33-5.51-6-5.51m-7 3.28h5.84c3.25 0 3.1 2.45 3.1 2.45 0 2-2.44 2.32-2.44 2.32H63zM35.03 68.3h-16.1v6.81h-1.71v3.79h1.62v7.15h16.18v-3.43H23.96v-3.65h7.69v-3.72h-7.69v-3.78h11.07V68.3z"/></g></g></svg>